<?xml version="1.0" encoding="utf-8"?>
<!-- Generator: Adobe Illustrator 20.1.0, SVG Export Plug-In . SVG Version: 6.00 Build 0)  -->
<svg version="1.1" xmlns="http://www.w3.org/2000/svg" xmlns:xlink="http://www.w3.org/1999/xlink" x="0px" y="0px"
	 viewBox="0 0 360 640" style="enable-background:new 0 0 360 640;" xml:space="preserve">
<g id="bg">

		<image style="overflow:visible;" width="360" height="640" id="crowd" xlink:href="images/crowd.png"  transform="matrix(0.9996 0 0 0.9996 0.5 0.5)">
	</image>
	<g id="lights">

		<image id="flash14" style="overflow:visible;" width="425" height="425" xlink:href="images/flash.png"  transform="matrix(0.2768 0 0 0.2768 -76.2604 183.5495)">
	</image>


			<image id="flash01" style="overflow:visible;" width="425" height="425" xlink:href="images/flash.png"  transform="matrix(0.3525 0 0 0.3525 131.2426 -7.9109)">
		</image>

			<image id="flash02" style="overflow:visible;" width="425" height="425" xlink:href="images/flash.png"  transform="matrix(0.2768 0 0 0.2768 147.3192 5.7324)">
		</image>

		<image id="flash16" style="overflow:visible;" width="425" height="425" xlink:href="images/flash.png"  transform="matrix(0.2768 0 0 0.2768 46.4547 247.2128)">
	</image>

			<image id="flash04" style="overflow:visible;" width="425" height="425" xlink:href="images/flash.png"  transform="matrix(0.2768 0 0 0.2768 270.0342 69.3957)">
		</image>


			<image id="flash06" style="overflow:visible;" width="425" height="425" xlink:href="images/flash.png"  transform="matrix(0.2768 0 0 0.2768 153.9143 142.599)">
		</image>

		<image id="flash20" style="overflow:visible;" width="425" height="425" xlink:href="images/flash.png"  transform="matrix(0.2149 0 0 0.2149 259.1032 306.0357)">
	</image>

	<image id="flash09" style="overflow:visible;" width="425" height="425" xlink:href="images/flash.png"  transform="matrix(0.2768 0 0 0.2768 120.6827 179.9355)">
</image>

			<image id="flash08" style="overflow:visible;" width="425" height="425" xlink:href="images/flash.png"  transform="matrix(0.2768 0 0 0.2768 109.1172 93.754)">
		</image>



			<image id="flash10" style="overflow:visible;" width="425" height="425" xlink:href="images/flash.png"  transform="matrix(0.3809 0 0 0.3809 270.0342 -57.5498)">
		</image>

		<image id="flash03" style="overflow:visible;" width="425" height="425" xlink:href="images/flash.png"  transform="matrix(0.2768 0 0 0.2768 246.8862 0.9438)">
	</image>

			<image id="flash11" style="overflow:visible;" width="425" height="425" xlink:href="images/flash.png"  transform="matrix(0.3809 0 0 0.3809 222.4247 154.3479)">
		</image>

			<image id="flash12" style="overflow:visible;" width="425" height="425" xlink:href="images/flash.png"  transform="matrix(0.3809 0 0 0.3809 279.1104 160.7352)">
		</image>

			<image id="flash13" style="overflow:visible;" width="425" height="425" xlink:href="images/flash.png"  transform="matrix(0.3525 0 0 0.3525 -92.337 169.9062)">
		</image>


		<image id="flash07" style="overflow:visible;" width="425" height="425" xlink:href="images/flash.png"  transform="matrix(0.2768 0 0 0.2768 147.3192 86.5262)">
		</image>

		<image id="flash05" style="overflow:visible;" width="425" height="425" xlink:href="images/flash.png"  transform="matrix(0.2768 0 0 0.2768 305.7091 189.6093)">
	</image>


			<image id="flash15" style="overflow:visible;" width="425" height="425" xlink:href="images/flash.png"  transform="matrix(0.2768 0 0 0.2768 23.3067 178.7609)">
		</image>



			<image id="flash17" style="overflow:visible;" width="425" height="425" xlink:href="images/flash.png"  transform="matrix(0.2768 0 0 0.2768 82.1296 367.4265)">
		</image>

			<image id="flash18" style="overflow:visible;" width="425" height="425" xlink:href="images/flash.png"  transform="matrix(0.2768 0 0 0.2768 -69.6653 320.4161)">
		</image>

			<image id="flash19" style="overflow:visible;" width="425" height="425" xlink:href="images/flash.png"  transform="matrix(0.2768 0 0 0.2768 -76.2604 264.3434)">
		</image>



			<image id="flash21" style="overflow:visible;" width="425" height="425" xlink:href="images/flash.png"  transform="matrix(0.2149 0 0 0.2149 203.8105 397.5103)">
		</image>

			<image id="flash22" style="overflow:visible;" width="425" height="425" xlink:href="images/flash.png"  transform="matrix(0.3809 0 0 0.3809 189.0961 242.2281)">
		</image>

			<image id="flash23" style="overflow:visible;" width="425" height="425" xlink:href="images/flash.png"  transform="matrix(0.3809 0 0 0.3809 -44.0739 79.7971)">
		</image>

			<image id="flash24" style="overflow:visible;" width="425" height="425" xlink:href="images/flash.png"  transform="matrix(0.3809 0 0 0.3809 -23.4761 0)">
		</image>

			<image id="flash25" style="overflow:visible;" width="425" height="425" xlink:href="images/flash.png"  transform="matrix(0.3809 0 0 0.3809 50.3045 -68.1222)">
		</image>

			<image id="flash26" style="overflow:visible;" width="425" height="425" xlink:href="images/flash.png"  transform="matrix(0.3809 0 0 0.3809 24.3394 316.5722)">
		</image>

			<image id="flash27" style="overflow:visible;" width="425" height="425" xlink:href="images/flash.png"  transform="matrix(0.2728 0 0 0.2728 -37.3627 391.7901)">
		</image>

			<image id="flash28" style="overflow:visible;" width="425" height="425" xlink:href="images/flash.png"  transform="matrix(0.2728 0 0 0.2728 284.2555 380.0881)">
		</image>

			<image id="flash29" style="overflow:visible;" width="425" height="425" xlink:href="images/flash.png"  transform="matrix(0.2728 0 0 0.2728 281.0415 239.9923)">
		</image>

			<image id="flash30" style="overflow:visible;" width="425" height="425" xlink:href="images/flash.png"  transform="matrix(0.2728 0 0 0.2728 -34.6671 245.9988)">
		</image>
	</g>	
</g>
<image style="overflow:visible;" width="360" height="265" id="floor" xlink:href="images/floor.png"  transform="matrix(1 0 0 1.0524 0.8566 410.2639)">
</image>
</svg>
