<svg id="frame-1" xmlns="http://www.w3.org/2000/svg" viewBox="0 0 354.02 350.5">
  <title>player</title>

  <defs>
        <path id="arm1" d="M129.71,301.84S127.23,314.75,88.23,332c-22.13,9.78-39.21,9.66-50.34,7.41" transform="translate(-21.98 -176)" fill="none" stroke="#844040" stroke-linecap="round" stroke-miterlimit="10" stroke-width="22.28"/>

        <path id="arm2" d="M129.71,301.84s-3.88-8-41.48,12.15c-24.07,12.88-33.37,34.29-37,48.92" transform="translate(-21.98 -176)" fill="none" stroke="#844040" stroke-linecap="round" stroke-miterlimit="10" stroke-width="22.28"/>


        <path id="arm3" d="M129.71,301.84s-7.9-4-25.77,34.7a131.62,131.62,0,0,0-12.26,58.61" transform="translate(-21.98 -176)" fill="none" stroke="#844040" stroke-linecap="round" stroke-miterlimit="10" stroke-width="22.28"/>

        <path id="arm4" d="M129.71,301.84s-8.83-.81-11.09,41.78a131.62,131.62,0,0,0,10.31,59" transform="translate(-21.98 -176)" fill="none" stroke="#844040" stroke-linecap="round" stroke-miterlimit="10" stroke-width="22.28"/>

        <marker id="hand" viewBox="0 0 18 18" refX="9" refY="9" markerWidth="1.5" markerHeight="1.5" orient="auto">
          <circle cx="9" cy="9" r="9" fill="#844040"/>
        </marker>

  </defs>

  <path id="arm" d="M129.71,301.84S127.23,314.75,88.23,332c-22.13,9.78-39.21,9.66-50.34,7.41" transform="translate(-21.98 -176)" fill="none" stroke="#844040" stroke-linecap="round" stroke-miterlimit="10" stroke-width="22.28" marker-end="url(#hand)"/>


  <path id="left-leg" d="M155.64,402.13C132.66,398.5,78.58,408,76,431c-3.25,28.86,60,75.5,60,75.5" transform="translate(-21.98 -176)" fill="none" stroke="#844040" stroke-miterlimit="10" stroke-width="22.28"/>
  <path id="right-leg" d="M192.45,400.7s67.09-.9,84.55,22.3c18.43,24.49,41,76.61,41,76.61" transform="translate(-21.98 -176)" fill="none" stroke="#844040" stroke-miterlimit="10" stroke-width="22.28"/>
  <g id="left-foot">
    <path d="M143.82,521.18V497.74s-73.24-10.2-74.17,23.44Z" transform="translate(-21.98 -176)" fill="#0d3560"/>
    <rect x="48.02" y="346" width="74" height="1" fill="#6e86a0"/>
    <path d="M101.71,507.88c-2.37-5.2-5-10.52-9.35-14.35-.52-.45-1.26.26-.76.76,4,4.1,6.77,8.95,9.22,14.11C101.11,509,102,508.48,101.71,507.88Z" transform="translate(-21.98 -176)" fill="#fff"/>
    <path d="M112,507.51c-3.37-5.67-6.75-11.69-11.51-16.33-.48-.47-1.15.23-.73.73A133.7,133.7,0,0,1,111.14,508,.47.47,0,0,0,112,507.51Z" transform="translate(-21.98 -176)" fill="#fff"/>
  </g>
  <g id="right-foot">
    <path d="M301,521.18V497.74s73.24-10.2,74.17,23.44Z" transform="translate(-21.98 -176)" fill="#0d3560"/>
    <rect x="278.02" y="346" width="76" height="1" fill="#6e86a0"/>
    <path d="M343.14,507.88c2.37-5.2,5-10.52,9.35-14.35.52-.45,1.26.26.76.76-4,4.1-6.77,8.95-9.23,14.11C343.75,509,342.87,508.48,343.14,507.88Z" transform="translate(-21.98 -176)" fill="#fff"/>
    <path d="M332.9,507.51c3.37-5.67,6.75-11.69,11.51-16.33.48-.47,1.15.23.73.73A133.69,133.69,0,0,0,333.72,508,.47.47,0,0,1,332.9,507.51Z" transform="translate(-21.98 -176)" fill="#fff"/>
  </g>
  <circle id="ball" cx="193.61" cy="488.13" r="38.37" transform="translate(-39.86 -168.52) rotate(-2.12)" fill="#ffad00"/>
  <g id="body">
    <rect x="115.02" y="92" width="76" height="146" rx="26.18" ry="26.18" fill="#f6f0e8"/>
    <path d="M185.37,263v30.17a10.8,10.8,0,1,1-21.6,0V263Z" transform="translate(-21.98 -176)" fill="#844040"/>
    <g>
      <path d="M161.41,347a9.45,9.45,0,0,1-8.39-4.35q-2.89-4.35-2.89-12.56,0-8,2.82-12.47a10.3,10.3,0,0,1,16.9,0q2.83,4.4,2.83,12.49t-2.9,12.57A9.46,9.46,0,0,1,161.41,347Zm0-5.33q2.52,0,3.18-4a46.72,46.72,0,0,0,.66-7.57,31.89,31.89,0,0,0-.88-8.65q-.88-2.94-2.91-2.94t-2.92,3a32.52,32.52,0,0,0-.87,8.6,31.75,31.75,0,0,0,.88,8.63Q159.38,341.64,161.36,341.64Z" transform="translate(-21.98 -176)" fill="#0d3560"/>
      <path d="M195.12,341.29v5.26H179.29v-5.26h4.15a38.78,38.78,0,0,1,2.71-11.5,47.17,47.17,0,0,1,5.55-10.93h-8.42v4.6H178v-9.72h20.5v4q-2.48,2.95-5,10.37A41.33,41.33,0,0,0,191,341.29Z" transform="translate(-21.98 -176)" fill="#0d3560"/>
    </g>
    <path d="M212.75,390.46A26.18,26.18,0,0,1,186.58,416H162.22A26.18,26.18,0,0,1,136,390.46Z" transform="translate(-21.98 -176)" fill="#0d3560"/>
  </g>
  <g id="head">
    <rect x="118.02" width="70" height="128" rx="24.58" ry="24.58" fill="#844040"/>
    <path d="M209.27,250.35v28.44a24.58,24.58,0,0,1-24.58,24.58H165.32a24.58,24.58,0,0,1-24.58-24.58V250.35Z" transform="translate(-21.98 -176)" fill="#422020"/>
    <circle cx="186.86" cy="61.78" r="7.63" fill="#844040"/>
    <circle cx="118.32" cy="61.78" r="7.63" fill="#844040"/>
    <path d="M193.9,240.74a19.8,19.8,0,0,1-38.26,0Z" transform="translate(-21.98 -176)" fill="#844040"/>
    <path d="M174.77,277.19c-5.78,0-10.65-7-12.06-15.45h24.12c-1.42,8.46-6.28,15.45-12.06,15.45" transform="translate(-21.98 -176)" fill="#844040"/>
    <circle cx="167.36" cy="49.7" r="2.58" fill="#302120" stroke="#30211f" stroke-miterlimit="10" stroke-width="1.49"/>
    <circle cx="134.58" cy="49.7" r="2.57" fill="#302120" stroke="#30211f" stroke-miterlimit="10" stroke-width="1.49"/>
    <path d="M177.09,215.86s-1.17,27.44,3.52,29.56-1.72,9.72-7.27,4.17c0,0-4.69,1.94-5.16-.17" transform="translate(-21.98 -176)" fill="#844040" stroke="#30211f" stroke-linecap="round" stroke-linejoin="round" stroke-width="2.97"/>
  </g>

  <path d="M149,314.84s21.12-26.71,9.6-35.43c-19-14.39-41,19.75-41,19.75Z" transform="translate(-21.98 -176)" fill="#0d3560"/>
  <path d="M198.76,314.84s-21.12-26.71-9.6-35.43c19-14.39,41,19.75,41,19.75Z" transform="translate(-21.98 -176)" fill="#0d3560"/>
</svg>
