<svg version="1.1" xmlns="http://www.w3.org/2000/svg" xmlns:xlink="http://www.w3.org/1999/xlink" viewBox="0 0 400 400">
<g id="monogram">
	<path d="M400,199.8H299.8v0h-54.5v0h-83.6l42.1,40.5h50v94.9l-54,53.9l0,10.9L400,200h-0.2L400,199.8z M303.7,240.3h45l-45,45
		V240.3z"/>
	<path d="M212.7,284.7l-102-105.1c7.8-0.3,29.7-1.8,39-6.8c21.5-11.6,40.4-32.2,40.4-58.5c0-22.5-20.3-44.6-37.2-56.5l46.9-46.9
		l0-10.9L38.6,161.2v0L0,199.7l0,0l0,0h0.1l38.5,38.5l0-58.4l105.9,104.9H212.7z M72.3,138.4l48.9-48.9c3.2,2.1,15.9,10.6,12.8,27.2
		c-4.1,21.6-28.9,21.7-28.9,21.7H72.3z"/>
</g>
</svg>
